<svg xmlns="http://www.w3.org/2000/svg" viewBox="0 0 20.03 22"><defs><style>.cls-1{fill:#fff;}</style></defs><title>Ресурс 3</title><g id="Слой_2" data-name="Слой 2"><g id="Слой_1-2" data-name="Слой 1"><path class="cls-1" d="M18.41,6.21a.72.72,0,0,0-.71-.63H15V4.89a4.9,4.9,0,0,0-9.79,0v.69H2.32a.72.72,0,0,0-.7.63L0,21.19a.7.7,0,0,0,.15.56A.65.65,0,0,0,.69,22H19.34a.66.66,0,0,0,.53-.25.71.71,0,0,0,.15-.54ZM5.16,7.48a1.59,1.59,0,1,0,1.36,0V7h7v.51a1.59,1.59,0,1,0,1.36,0V7h2.31l1.46,13.59H1.5L3,7h2.2ZM14,9a.2.2,0,0,1,.2-.21.21.21,0,0,1,.21.21.2.2,0,0,1-.21.2A.19.19,0,0,1,14,9ZM5.66,9a.21.21,0,0,1,.21-.21.2.2,0,0,1,.2.21.2.2,0,0,1-.2.2A.2.2,0,0,1,5.66,9Zm.92-3.37V4.89a3.48,3.48,0,0,1,7,0v.69Z"/></g></g></svg>