<svg xmlns="http://www.w3.org/2000/svg" viewBox="0 0 28.18 28"><defs><style>.cls-1{fill:#fff;}</style></defs><title>Ресурс 1</title><g id="Слой_2" data-name="Слой 2"><g id="Слой_1-2" data-name="Слой 1"><path class="cls-1" d="M14,1.41a12.48,12.48,0,0,1,6.41,1.82A13.69,13.69,0,0,1,23.76,6l-3.31-.11a.71.71,0,1,0-.05,1.41L25,7.49a.7.7,0,0,0,.92-.92L25.75,2a.71.71,0,0,0-1.41,0V2l.09,2.64A15.6,15.6,0,0,0,21.14,2,13.91,13.91,0,0,0,14,0,13.65,13.65,0,0,0,3.76,4.58,14.58,14.58,0,0,0,0,14a.71.71,0,0,0,1.41,0,13.11,13.11,0,0,1,3.4-8.48A12.22,12.22,0,0,1,14,1.41Z"/><path class="cls-1" d="M27.47,13.3a.7.7,0,0,0-.7.7,13.11,13.11,0,0,1-3.4,8.48,12.24,12.24,0,0,1-9.19,4.11,12.52,12.52,0,0,1-6.42-1.82A13.83,13.83,0,0,1,4.42,22l3.31.11a.71.71,0,1,0,0-1.41l-4.58-.15a.69.69,0,0,0-.76.15.71.71,0,0,0-.15.77L2.43,26a.71.71,0,0,0,1.41,0v0l-.09-2.64A15.35,15.35,0,0,0,7,26a13.91,13.91,0,0,0,7.14,2,13.65,13.65,0,0,0,10.24-4.58A14.58,14.58,0,0,0,28.18,14,.7.7,0,0,0,27.47,13.3Z"/></g></g></svg>