<svg xmlns="http://www.w3.org/2000/svg" viewBox="0 0 22.3 24.5"><defs><style>.cls-1{stroke:#000;stroke-miterlimit:10;stroke-width:0.5px;}</style></defs><title>Ресурс 3</title><g id="Слой_2" data-name="Слой 2"><g id="Слой_1-2" data-name="Слой 1"><path class="cls-1" d="M22.05,23.65,20.25,6.94a.55.55,0,0,0-.54-.47H16.4v-1A5.2,5.2,0,1,0,6,5.45v1H2.59a.55.55,0,0,0-.54.47L.26,23.65a.54.54,0,0,0,.12.42.48.48,0,0,0,.39.18H21.54a.48.48,0,0,0,.39-.18A.54.54,0,0,0,22.05,23.65ZM15.86,9.49a.47.47,0,0,1,.48.47.48.48,0,0,1-1,0A.47.47,0,0,1,15.86,9.49Zm-8.79-4a4.13,4.13,0,0,1,8.25,0v1H7.07Zm-.54,4A.47.47,0,0,1,7,10a.48.48,0,1,1-1,0A.46.46,0,0,1,6.53,9.49ZM1.39,23.14,3.07,7.51H6v1a1.53,1.53,0,1,0,1,0v-1h8.25v1a1.52,1.52,0,1,0,1,0v-1h3L21,23.14Z"/></g></g></svg>