<svg xmlns="http://www.w3.org/2000/svg" viewBox="0 0 20.57 24"><title>Ресурс 2</title><g id="Слой_2" data-name="Слой 2"><g id="Слой_1-2" data-name="Слой 1"><path d="M10.29,11.43A5.72,5.72,0,1,1,16,5.71,5.72,5.72,0,0,1,10.29,11.43Zm0-9.72a4,4,0,1,0,4,4A4,4,0,0,0,10.29,1.71Z"/><path d="M19.71,24H.86A.85.85,0,0,1,0,23.14v-4a5.44,5.44,0,0,1,5.43-5.43h9.71a5.44,5.44,0,0,1,5.43,5.43v4A.85.85,0,0,1,19.71,24Zm-18-1.71H18.86V19.14a3.72,3.72,0,0,0-3.72-3.71H5.43a3.72,3.72,0,0,0-3.72,3.71Z"/></g></g></svg>