<svg xmlns="http://www.w3.org/2000/svg" viewBox="0 0 19.36 19.36"><defs><style>.cls-1{fill:#fff;}</style></defs><title>Ресурс 11</title><g id="Слой_2" data-name="Слой 2"><g id="Слой_1-2" data-name="Слой 1"><path class="cls-1" d="M14,0H5.34A5.35,5.35,0,0,0,0,5.34V14a5.35,5.35,0,0,0,5.34,5.35H14A5.36,5.36,0,0,0,19.36,14V5.34A5.35,5.35,0,0,0,14,0Zm3.63,14A3.64,3.64,0,0,1,14,17.64H5.34A3.63,3.63,0,0,1,1.72,14V5.34A3.62,3.62,0,0,1,5.34,1.72H14a3.63,3.63,0,0,1,3.63,3.62Z"/><path class="cls-1" d="M9.68,4.69a5,5,0,1,0,5,5,5,5,0,0,0-5-5Zm0,8.26A3.27,3.27,0,1,1,13,9.68,3.27,3.27,0,0,1,9.68,13Z"/><path class="cls-1" d="M14.87,3.23a1.26,1.26,0,0,0-1.26,1.26,1.28,1.28,0,0,0,.37.89,1.26,1.26,0,0,0,.89.37,1.22,1.22,0,0,0,.89-.37,1.24,1.24,0,0,0,.37-.89,1.26,1.26,0,0,0-1.26-1.26Z"/></g></g></svg>