<svg xmlns="http://www.w3.org/2000/svg" viewBox="0 0 33.88 33.88"><defs><style>.cls-1{fill:#fbbd00;}.cls-2{fill:#0f9d58;}.cls-3{fill:#31aa52;}.cls-4{fill:#3c79e6;}.cls-5{fill:#cf2d48;}.cls-6{fill:#eb4132;}</style></defs><title>Ресурс 2</title><g id="Слой_2" data-name="Слой 2"><g id="Слой_1-2" data-name="Слой 1"><path class="cls-1" d="M7.94,16.94a8.9,8.9,0,0,1,1.27-4.6V6.63H3.5a16.94,16.94,0,0,0,0,20.62H9.21V21.54A8.9,8.9,0,0,1,7.94,16.94Z"/><path class="cls-2" d="M16.94,25.94l-4,4,4,4a16.84,16.84,0,0,0,10.31-3.49V24.68h-5.7A9,9,0,0,1,16.94,25.94Z"/><path class="cls-3" d="M9.21,21.54,3.5,27.25A16.31,16.31,0,0,0,5,28.92a16.84,16.84,0,0,0,12,5V25.94a9,9,0,0,1-7.73-4.4Z"/><path class="cls-4" d="M33.88,16.94a17.52,17.52,0,0,0-.27-3.07l-.15-.81H16.94V21h8a9,9,0,0,1-3.43,3.68l5.7,5.71a17.74,17.74,0,0,0,1.67-1.47A16.82,16.82,0,0,0,33.88,16.94Z"/><path class="cls-5" d="M23.31,10.58l.7.7,5.61-5.62-.7-.7a16.82,16.82,0,0,0-12-5L13,4l4,4A9,9,0,0,1,23.31,10.58Z"/><path class="cls-6" d="M16.94,7.94V0A16.84,16.84,0,0,0,5,5,16.31,16.31,0,0,0,3.5,6.63l5.71,5.71A9,9,0,0,1,16.94,7.94Z"/></g></g></svg>