<svg xmlns="http://www.w3.org/2000/svg" viewBox="0 0 36.94 27"><defs><style>.cls-1{fill:#fff;}</style></defs><title>Ресурс 2</title><g id="Слой_2" data-name="Слой 2"><g id="Слой_1-2" data-name="Слой 1"><path class="cls-1" d="M35.75,6.3c-1.36-1.35-4.31-1.57-8.1-.58a.54.54,0,0,0-.39.66.54.54,0,0,0,.66.4c3.31-.86,6-.75,7,.29s1.17,3.95.19,7.45a21.43,21.43,0,0,1-4.79,9,8.33,8.33,0,0,1-11.49.28,11,11,0,0,0,3.23-7.81,16.26,16.26,0,0,0-.34-3.12.55.55,0,0,0-.53-.44H20c-.13-.53-.27-1.07-.44-1.61a22.15,22.15,0,0,1,6-3.25.54.54,0,1,0-.38-1,23.43,23.43,0,0,0-5.95,3.18C17.44,4.7,14,0,11.06,0,8.36,0,5.62,3.68,4,7.13a.54.54,0,0,0,.26.73.55.55,0,0,0,.73-.25c1.88-3.9,4.34-6.52,6.12-6.52,1.3,0,3,1.39,4.58,3.8a24.56,24.56,0,0,1,3.27,7.49H3.2A23.85,23.85,0,0,1,4,9.91a.55.55,0,0,0-1-.38,24.61,24.61,0,0,0-.85,2.85H.88a.55.55,0,0,0-.54.44A16.26,16.26,0,0,0,0,15.94a10.92,10.92,0,0,0,2.4,6.87.53.53,0,0,0,.76.09.54.54,0,0,0,.09-.77,9.88,9.88,0,0,1-2.16-6.19,14.16,14.16,0,0,1,.24-2.46H20.78A14.16,14.16,0,0,1,21,15.94a10,10,0,0,1-10,10A9.84,9.84,0,0,1,5,23.82a.55.55,0,0,0-.67.87,11.06,11.06,0,0,0,13.78-.2,9.43,9.43,0,0,0,13.07-.25,22.7,22.7,0,0,0,5.08-9.43C36.74,12.92,37.75,8.3,35.75,6.3Z"/><path class="cls-1" d="M33.24,7.32c-.14-.05-3.48-1.19-8.26,2a.55.55,0,0,0,.6.92c4.28-2.82,7.25-1.86,7.3-1.85A.53.53,0,0,0,33.57,8a.55.55,0,0,0-.33-.7Z"/><path class="cls-1" d="M29.14,21.75a.54.54,0,0,0,.39-.16,16.29,16.29,0,0,0,4.4-7.39,10,10,0,0,0,.36-3.43.54.54,0,1,0-1.08.13s.51,4.95-4.46,9.92A.55.55,0,0,0,29.14,21.75Z"/><path class="cls-1" d="M31.53,10.39A.55.55,0,0,0,31,9.83c-.15,0-3.74-.07-8.24,4.42a.54.54,0,0,0,.77.77c4.12-4.12,7.39-4.1,7.44-4.1a.55.55,0,0,0,.56-.53Z"/><path class="cls-1" d="M25.8,21.52a.51.51,0,0,0,.38-.16c4.17-4.17,4.8-7.81,4.82-8a.54.54,0,1,0-1.07-.18s-.62,3.47-4.52,7.37A.55.55,0,0,0,25.8,21.52Z"/><path class="cls-1" d="M10,2.5c-.14.06-3.3,1.62-4.46,7.22a.55.55,0,0,0,1.07.22c1-5,3.82-6.44,3.86-6.46a.55.55,0,0,0,.26-.72A.54.54,0,0,0,10,2.5Z"/><path class="cls-1" d="M12.59,5.1c.1.06,2.47,1.42,2.81,5.75a.55.55,0,1,0,1.09-.08c-.39-5-3.26-6.57-3.38-6.63a.55.55,0,0,0-.52,1Z"/><path class="cls-1" d="M10.07,5.82A5,5,0,0,0,8.39,9.67a.55.55,0,0,0,.55.55.55.55,0,0,0,.54-.55,3.91,3.91,0,0,1,1.27-3,.55.55,0,0,0,.08-.77A.53.53,0,0,0,10.07,5.82Z"/><path class="cls-1" d="M12.29,8a.56.56,0,0,0,0,.66,4.13,4.13,0,0,1,.6,2.35.56.56,0,0,0,.53.56A.55.55,0,0,0,14,11a5.28,5.28,0,0,0-.81-3,.54.54,0,0,0-.86,0Z"/><path class="cls-1" d="M10.51,9.83V11.3a.55.55,0,1,0,1.09,0V9.83a.55.55,0,0,0-1.09,0Z"/></g></g></svg>