<?xml version="1.0" encoding="utf-8"?>
<!-- Generator: Adobe Illustrator 22.0.1, SVG Export Plug-In . SVG Version: 6.00 Build 0)  -->
<svg version="1.1" id="Слой_1" xmlns="http://www.w3.org/2000/svg" xmlns:xlink="http://www.w3.org/1999/xlink" x="0px" y="0px"
	 viewBox="0 0 190.7 43.4" style="enable-background:new 0 0 190.7 43.4;" xml:space="preserve">
<style type="text/css">
	.st0{fill:#FFB555;}
	.st1{fill:#FF8243;}
	.st2{fill:#FFFFFF;}
	.st3{fill:#298243;}
	.st4{fill:#81B555;}
	.st5{fill:#295520;}
	.st6{fill:#517420;}
	.st7{fill:#56A343;}
	.st8{fill:#929500;}
</style>
<g>
	<g>
		<path class="st0" d="M1.5,19.5v8.3c0,5.9,4.2,10.8,9.7,11.9l2.4,2.7l2.4-2.7c5.5-1.1,9.7-6,9.7-11.9v-8.3H1.5z"/>
		<path class="st1" d="M13.8,39.8C8.2,38.7,4,33.8,4,27.9v-8.3H1.5v8.3c0,5.9,4.2,10.8,9.7,11.9l2.4,2.7l1.2-1.4L13.8,39.8z"/>
		<path d="M25.1,27.9c0,5.5-3.9,10.2-9.2,11.2l-0.2,0l-2,2.4l-2-2.4l-0.2,0C6,38.1,2.2,33.4,2.2,27.9v-6.7H0.9v6.7
			c0,6,4.2,11.2,10,12.4l2.7,3.1l2.7-3.1c5.8-1.3,10-6.4,10-12.4v-6.7h-1.2V27.9z"/>
		<path d="M5.9,24.6v3.3c0,3.2,0.7,6.3,2.1,8.6L9,35.9c-1.2-2.2-1.9-5-1.9-8v-3.3H5.9z"/>
		<path d="M21.4,21.1h-1.2c0,7.3,0.1,7.8-0.2,9.5l1.2,0.2C21.5,28.9,21.4,28.4,21.4,21.1z"/>
		<path d="M16.9,24.2h-1.2c0,3.8,0.1,7.1-0.5,10.8l1.2,0.2C17,31.4,16.9,28.1,16.9,24.2z"/>
		<path d="M10.3,22.2c0,5.9,0,7.5,0.2,10.3l1.2-0.1c-0.2-2.7-0.2-4.2-0.2-10.2H10.3z"/>
		<g>
			<path class="st2" d="M20,36.4l-0.7-1c2.4-1.8,3.8-4.6,3.8-7.5v-2.1h1.2v2.1C24.3,31.2,22.7,34.4,20,36.4z M24.3,24.9H23v-1.2h1.2
				V24.9z M24.3,22.9H23v-1.2h1.2V22.9z"/>
		</g>
		<polygon points="23.2,12.7 19.9,5.8 18.1,9.5 13.6,0 9.1,9.5 7.3,5.8 4,12.7 0,7.8 1,19.1 4.5,19.1 9.2,19.1 17.9,19.1 22.6,19.1 
			26.2,19.1 27.2,7.8 		"/>
		<polygon class="st3" points="19.9,8.1 22.5,13.5 20.9,15.4 18.7,10.7 		"/>
		<polygon class="st3" points="7.3,8.1 8.5,10.7 6.2,15.4 4.7,13.5 		"/>
		<polygon class="st4" points="1.3,10.9 3.5,13.7 1.8,17.3 		"/>
		<polygon class="st5" points="5,18.1 2.5,18.1 4.2,14.5 5.8,16.4 		"/>
		<polygon class="st6" points="6.1,18.1 6.5,17.3 7.1,18.1 		"/>
		<polygon class="st7" points="8.4,18.1 6.9,16.3 9.1,11.9 12,18.1 		"/>
		<polygon class="st8" points="13.1,18.1 9.6,10.7 13.6,2.3 17.6,10.7 14.1,18.1 		"/>
		<polygon class="st7" points="15.2,18.1 18.1,11.9 20.2,16.3 18.8,18.1 		"/>
		<polygon class="st6" points="20.1,18.1 20.7,17.3 21.1,18.1 		"/>
		<polygon class="st5" points="22.2,18.1 21.4,16.4 22.9,14.5 24.6,18.1 		"/>
		<polygon class="st4" points="25.4,17.3 23.6,13.7 25.9,10.9 		"/>
	</g>
	<g>
		<g>
			<path d="M42.5,17h2.8l6.6,8.6V17h3v14h-2.6l-6.8-8.9V31h-3V17z"/>
			<path d="M64.1,25v-8h3.1v7.9c0,2.3,1.1,3.5,3,3.5s3-1.1,3-3.4v-8h3.1v7.9c0,4.2-2.4,6.3-6.1,6.3S64.1,29.1,64.1,25z"/>
			<path d="M88.7,19.9h-4.3V17H96v2.8h-4.3V31h-3.1V19.9z"/>
			<path d="M103.1,29l1.8-2.2c1.3,1,2.6,1.7,4.2,1.7c1.3,0,2-0.5,2-1.4c0-0.8-0.5-1.2-2.8-1.8c-2.8-0.7-4.6-1.5-4.6-4.3
				c0-2.5,2-4.2,4.9-4.2c2,0,3.8,0.6,5.2,1.8l-1.6,2.3c-1.2-0.9-2.5-1.4-3.6-1.4c-1.2,0-1.8,0.5-1.8,1.3c0,0.9,0.6,1.2,3,1.8
				c2.8,0.7,4.4,1.8,4.4,4.2c0,2.8-2.1,4.3-5.1,4.3C106.9,31.2,104.8,30.5,103.1,29z"/>
			<path d="M122.9,17h3.1v6.1l5.7-6.1h3.7l-5.7,5.9l6,8.1h-3.7l-4.3-6l-1.6,1.7V31h-3.1V17z"/>
			<path d="M143.6,17h3.1v14h-3.1V17z"/>
			<path d="M156.2,17h2.8l6.6,8.6V17h3v14H166l-6.8-8.9V31h-3V17z"/>
			<path d="M177.4,24c0-4,3.1-7.2,7.3-7.2c2.5,0,4,0.7,5.5,1.9l-1.9,2.3c-1.1-0.9-2-1.4-3.7-1.4c-2.2,0-4,2-4,4.4
				c0,2.6,1.8,4.4,4.2,4.4c1.1,0,2.1-0.3,2.9-0.8v-2h-3.1V23h6.1V29c-1.4,1.2-3.4,2.2-6,2.2C180.4,31.3,177.4,28.2,177.4,24z"/>
		</g>
	</g>
</g>
</svg>
