<svg xmlns="http://www.w3.org/2000/svg" viewBox="0 0 18.17 20"><defs><style>.cls-1{fill:#fff;}</style></defs><title>Ресурс 1</title><g id="Слой_2" data-name="Слой 2"><g id="Слой_1-2" data-name="Слой 1"><path class="cls-1" d="M18.16,19.5,16.67,5.58a.46.46,0,0,0-.45-.4H13.46V4.33a4.34,4.34,0,0,0-8.67,0v.85H2a.46.46,0,0,0-.45.4L0,19.5a.41.41,0,0,0,.1.35A.39.39,0,0,0,.43,20H17.74a.39.39,0,0,0,.32-.15A.41.41,0,0,0,18.16,19.5ZM13,7.7a.4.4,0,1,1-.4.39A.39.39,0,0,1,13,7.7ZM5.69,4.33a3.44,3.44,0,0,1,6.87,0v.85H5.69ZM5.24,7.7a.4.4,0,1,1-.4.39A.39.39,0,0,1,5.24,7.7ZM1,19.08l1.4-13H4.79v.82a1.27,1.27,0,1,0,.85,0V6.05h6.87v.82a1.27,1.27,0,1,0,.85,0V6.05H15.9l1.39,13Z"/></g></g></svg>