<svg xmlns="http://www.w3.org/2000/svg" viewBox="0 0 37 37"><defs><style>.cls-1{fill:#fff;}</style></defs><title>Ресурс 2</title><g id="Слой_2" data-name="Слой 2"><g id="Слой_1-2" data-name="Слой 1"><path class="cls-1" d="M18.5,37A18.5,18.5,0,1,0,0,18.5,18.52,18.52,0,0,0,18.5,37Zm0-35.35A16.85,16.85,0,1,1,1.65,18.5,16.87,16.87,0,0,1,18.5,1.65Z"/><path class="cls-1" d="M13.94,16.84a3.42,3.42,0,1,0-3.42-3.42A3.42,3.42,0,0,0,13.94,16.84Zm0-5.18a1.77,1.77,0,1,1-1.77,1.76A1.76,1.76,0,0,1,13.94,11.66Z"/><path class="cls-1" d="M19.44,23.79a3.42,3.42,0,1,0,3.41-3.42A3.41,3.41,0,0,0,19.44,23.79Zm5.18,0A1.77,1.77,0,1,1,22.85,22,1.76,1.76,0,0,1,24.62,23.79Z"/><path class="cls-1" d="M12.22,28.13a.82.82,0,0,0,1.14-.24L25,10a.83.83,0,0,0,.05-.82.83.83,0,0,0-1.43-.08L12,27A.82.82,0,0,0,12.22,28.13Z"/></g></g></svg>